<svg xmlns="http://www.w3.org/2000/svg" width="600" height="612" viewBox="0 0 600 612">
  <g id="about.image" transform="translate(-109.248 -57.389)">
    <path id="Trazado_193" data-name="Trazado 193" d="M310.456,162.2h57.6a101.511,101.511,0,0,1,96.882,71.752l31.115,101.478a24.237,24.237,0,0,1-23.146,31.379h-267.5a24.237,24.237,0,0,1-23.146-31.379l31.115-101.478A101.511,101.511,0,0,1,310.456,162.2Z" transform="translate(165.771 241.358)" fill="#ffb100"/>
    <path id="Trazado_194" data-name="Trazado 194" d="M475.335,372.423h-267.5a27.577,27.577,0,0,1-26.453-35.645L212.662,235.3a104.289,104.289,0,0,1,100.189-74.1h57.534a104.289,104.289,0,0,1,100.189,74.1l31.115,101.478a27.577,27.577,0,0,1-26.452,35.645Zm-162.55-204.61a97.709,97.709,0,0,0-93.873,69.438L187.8,338.729a21,21,0,0,0,20.038,27.114h267.5a21,21,0,0,0,20.038-27.114L464.258,237.251a97.709,97.709,0,0,0-93.873-69.438Z" transform="translate(163.443 239.051)" fill="#093f68"/>
    <path id="Trazado_195" data-name="Trazado 195" d="M223.693,158.74h35.182v20.236a14.946,14.946,0,0,1-14.946,14.946h-5.324a14.946,14.946,0,0,1-14.946-14.946V158.74Z" transform="translate(263.795 233.543)" fill="#ffc9b0"/>
    <path id="Trazado_196" data-name="Trazado 196" d="M246.213,199.5h-5.29a18.252,18.252,0,0,1-18.252-18.219V161.047a3.307,3.307,0,0,1,3.307-3.307h35.182a3.307,3.307,0,0,1,3.307,3.307v20.236A18.252,18.252,0,0,1,246.213,199.5Zm-16.93-35.149v16.93a11.639,11.639,0,0,0,11.639,11.606h5.291a11.639,11.639,0,0,0,11.639-11.606v-16.93Z" transform="translate(261.511 231.236)" fill="#093f68"/>
    <path id="Trazado_197" data-name="Trazado 197" d="M207.97,292.584C191.636,286.4,192.628,273.9,190.181,257.9a407.889,407.889,0,0,1-4.53-47.879c-.628-18.219,0-36.934,6.944-53.831,8.895-21.724,26.452-35.744,49.9-33.826-.694-32.007,18.517-62.031,52.541-63.85C349.557,55.6,381,114.163,411.456,109.8s38.621-17.922,38.621-17.922a55.947,55.947,0,0,1-6.613,61.733s24.039-7.01,26.948,24.965-16.235,116.953-16.235,116.953l-21.724-3.7c-9.159-1.62-20.6.628-29.759.926l-68.148,2.116C300.355,295.825,245.07,306.6,207.97,292.584Z" transform="translate(175.64 2.352)" fill="#725858"/>
    <path id="Trazado_198" data-name="Trazado 198" d="M259.414,305.352c-17.922,0-35.546-1.752-50.326-7.341h0c-15.838-6.018-17.293-17.459-18.98-30.718q-.4-3.307-.893-6.613a413.334,413.334,0,0,1-4.563-48.276c-.6-17.095-.2-37.067,7.208-55.153,9.424-23.146,27.015-36.075,48.606-36.075h1.025c.727-30.784,19.608-61.766,55.682-63.684,31.71-1.653,56.211,16.83,75.786,31.677,15.144,11.474,28.238,21.36,40.307,19.641,28.271-4.034,36.372-16.235,36.372-16.367a3.341,3.341,0,0,1,5.687.066c.166.3,16.731,29.5-2.513,59.519a22.583,22.583,0,0,1,11.507,3.77c6.613,4.629,10.746,12.962,11.8,24.832,2.943,32.14-15.475,114.473-16.268,117.978a3.307,3.307,0,0,1-3.8,2.513l-21.823-3.637a78.331,78.331,0,0,0-19.409.265c-3.307.331-6.613.628-9.92.727l-68.148,2.116c-8.5.265-18.484,1.157-29.032,2.083C292.81,303.864,275.98,305.352,259.414,305.352Zm-47.978-13.524c27.048,10.25,65.172,6.845,95.89,4.1,10.647-.959,20.732-1.852,29.428-2.116L404.9,291.7c2.877,0,6.018-.4,9.325-.694a82.661,82.661,0,0,1,21.162-.2h0c1.157,0,4.927.827,18.682,3.307,3.307-15.475,17.988-85.144,15.475-112.853q-1.339-14.88-8.895-19.839a18.054,18.054,0,0,0-13.821-2.182,3.3,3.3,0,0,1-3.472-5.257,51.979,51.979,0,0,0,8.266-53.7c-5.059,4.761-16.07,12.2-37.331,15.243-14.813,2.083-28.932-8.564-45.267-20.9C349.187,79.646,326.868,62.717,297.6,64.271c-33.264,1.752-50.061,31.776-49.433,60.477a3.344,3.344,0,0,1-3.6,3.373c-20.633-1.719-37.6,9.92-46.523,31.776-6.911,16.963-7.274,36.041-6.613,52.442a406.67,406.67,0,0,0,4.464,47.482c.364,2.348.661,4.563.926,6.613,1.587,12.5,2.645,20.765,14.78,25.361Z" transform="translate(173.332 0)" fill="#093f68"/>
    <ellipse id="Elipse_11" data-name="Elipse 11" cx="34.157" cy="29.428" rx="34.157" ry="29.428" transform="translate(370.43 271.571)" fill="#ffc9b0"/>
    <path id="Trazado_199" data-name="Trazado 199" d="M224.723,186.693c-20.666,0-37.463-14.681-37.463-32.735s16.8-32.768,37.463-32.768,37.5,14.714,37.5,32.768S245.389,186.693,224.723,186.693Zm0-58.89c-17,0-30.85,11.738-30.85,26.155s13.854,26.122,30.85,26.122,30.883-11.705,30.883-26.122-13.854-26.122-30.883-26.122Z" transform="translate(179.864 147.009)" fill="#093f68"/>
    <ellipse id="Elipse_12" data-name="Elipse 12" cx="34.157" cy="29.428" rx="34.157" ry="29.428" transform="translate(569.571 271.571)" fill="#ffc9b0"/>
    <path id="Trazado_200" data-name="Trazado 200" d="M285,186.693c-20.666,0-37.5-14.681-37.5-32.735S264.33,121.19,285,121.19,322.46,135.9,322.46,153.958,305.662,186.693,285,186.693Zm0-58.89c-17.029,0-30.883,11.738-30.883,26.155S267.968,180.08,285,180.08s30.85-11.705,30.85-26.122S302.058,127.836,285,127.836Z" transform="translate(318.732 147.009)" fill="#093f68"/>
    <path id="Trazado_201" data-name="Trazado 201" d="M300.918,315.131h0A103.065,103.065,0,0,1,197.82,212.2V137.271c6.018,9.92,26.023,5.952,55.352-44.341,109.778,55.616,150.779,23.741,150.779,23.741V212.2A103.065,103.065,0,0,1,300.918,315.131Z" transform="translate(204.182 81.859)" fill="#ffc9b0"/>
    <path id="Trazado_202" data-name="Trazado 202" d="M303.225,320.819a106.471,106.471,0,0,1-106.4-106.24V139.653a3.307,3.307,0,0,1,6.15-1.719,5.489,5.489,0,0,0,5.059,2.744h0c4.034,0,19.178-3.538,44.539-47.052a3.306,3.306,0,0,1,4.365-1.389c106.074,53.732,146.877,24.369,147.274,24.072a3.307,3.307,0,0,1,5.323,2.645V214.58A106.471,106.471,0,0,1,303.225,320.82ZM203.466,146.5V214.58a99.759,99.759,0,0,0,199.518,0V124.741c-14.284,6.613-58.162,18.781-146.183-25.1-18.252,30.652-35.479,47.548-48.606,47.647a11.374,11.374,0,0,1-4.762-.794Z" transform="translate(201.874 79.478)" fill="#093f68"/>
    <path id="Trazado_203" data-name="Trazado 203" d="M251.307,305.707A3.306,3.306,0,0,1,248,302.4V181.447a3.307,3.307,0,1,1,6.613,0V302.4A3.306,3.306,0,0,1,251.307,305.707Z" transform="translate(319.92 278.125)" fill="#093f68"/>
    <path id="Trazado_204" data-name="Trazado 204" d="M211.307,305.707A3.307,3.307,0,0,1,208,302.4V181.447a3.307,3.307,0,1,1,6.613,0V302.4A3.307,3.307,0,0,1,211.307,305.707Z" transform="translate(227.692 278.125)" fill="#093f68"/>
    <path id="Trazado_205" data-name="Trazado 205" d="M238.078,160.674a68.609,68.609,0,0,1-10.35-.86,3.357,3.357,0,1,1,1.157-6.613,50.524,50.524,0,0,0,15.706,0c.661-3.042-3.307-14.384-8.928-25.064a3.306,3.306,0,1,1,5.985-2.811c3.7,7.109,12,24.37,8.96,31.148a5.687,5.687,0,0,1-3.836,3.307,35.512,35.512,0,0,1-8.7.893Z" transform="translate(266.77 152.166)" fill="#093f68"/>
    <path id="Trazado_206" data-name="Trazado 206" d="M261.857,119.956H211.333a6.613,6.613,0,1,1,0-13.226H261.89a6.613,6.613,0,0,1,0,13.226Z" transform="translate(220.121 113.701)" fill="#093f68"/>
    <path id="Trazado_207" data-name="Trazado 207" d="M290.107,119.956H239.583a6.613,6.613,0,0,1,0-13.226h50.524a6.613,6.613,0,0,1,0,13.226Z" transform="translate(285.254 113.701)" fill="#093f68"/>
    <path id="Trazado_208" data-name="Trazado 208" d="M211.318,116.21h59.518a8.465,8.465,0,0,1,8.465,8.465V130.2a28.536,28.536,0,0,1-28.536,28.536H231.356A28.536,28.536,0,0,1,202.82,130.2v-5.522a8.465,8.465,0,0,1,8.5-8.465Z" transform="translate(215.738 135.54)" fill="#fff"/>
    <path id="Trazado_209" data-name="Trazado 209" d="M253.059,164.379H233.682a31.875,31.875,0,0,1-31.842-31.842v-5.555a11.771,11.771,0,0,1,11.738-11.771H273.1a11.8,11.8,0,0,1,11.771,11.771v5.555A31.875,31.875,0,0,1,253.059,164.379Zm-39.48-42.555a5.125,5.125,0,0,0-5.125,5.158v5.555a25.262,25.262,0,0,0,25.229,25.229h19.376a25.3,25.3,0,0,0,25.262-25.229v-5.555a5.158,5.158,0,0,0-5.158-5.158Z" transform="translate(213.478 133.234)" fill="#093f68"/>
    <path id="Trazado_210" data-name="Trazado 210" d="M240.378,116.21H299.9a8.465,8.465,0,0,1,8.465,8.465V130.2a28.536,28.536,0,0,1-28.536,28.536H260.416A28.536,28.536,0,0,1,231.88,130.2v-5.522a8.465,8.465,0,0,1,8.5-8.465Z" transform="translate(282.738 135.54)" fill="#fff"/>
    <path id="Trazado_211" data-name="Trazado 211" d="M282.142,164.379H262.765a31.875,31.875,0,0,1-31.875-31.842v-5.555a11.8,11.8,0,0,1,11.771-11.771h59.518a11.771,11.771,0,0,1,11.738,11.771v5.555A31.875,31.875,0,0,1,282.142,164.379Zm-39.48-42.555a5.158,5.158,0,0,0-5.158,5.158v5.555a25.3,25.3,0,0,0,25.262,25.229h19.377a25.262,25.262,0,0,0,25.229-25.229v-5.555a5.125,5.125,0,0,0-5.125-5.158Z" transform="translate(280.454 133.234)" fill="#093f68"/>
    <path id="Trazado_212" data-name="Trazado 212" d="M218.617,126.063h-19.31a3.307,3.307,0,0,1,0-6.613h19.211a3.307,3.307,0,0,1,0,6.613Z" transform="translate(200.022 143.014)" fill="#093f68"/>
    <path id="Trazado_213" data-name="Trazado 213" d="M276.8,126.063H257.627a3.307,3.307,0,1,1,0-6.613H276.8a3.307,3.307,0,1,1,0,6.613Z" transform="translate(334.488 143.014)" fill="#093f68"/>
    <path id="Trazado_214" data-name="Trazado 214" d="M247.782,126.063H228.307a3.307,3.307,0,1,1,0-6.613h19.575a3.307,3.307,0,0,1,0,6.613Z" transform="translate(266.886 143.014)" fill="#093f68"/>
    <path id="Trazado_215" data-name="Trazado 215" d="M253.892,153.227a95.46,95.46,0,0,1-34.52-6.316,3.313,3.313,0,0,1,2.381-6.183,96.651,96.651,0,0,0,65.371,0,3.313,3.313,0,0,1,2.546,6.117,101.049,101.049,0,0,1-35.777,6.382Z" transform="translate(249.003 191.457)" fill="#093f68"/>
    <path id="Trazado_216" data-name="Trazado 216" d="M258.764,218.146a3.307,3.307,0,0,1-.727-6.547l36.571-7.473a3.372,3.372,0,1,1,1.323,6.613l-36.57,7.44a2.117,2.117,0,0,1-.6-.033Z" transform="translate(336.929 337.985)" fill="#093f68"/>
    <path id="Trazado_217" data-name="Trazado 217" d="M229.433,218.331a2.117,2.117,0,0,1-.661,0L192.2,210.659a3.372,3.372,0,0,1,1.323-6.613l36.571,7.473a3.459,3.459,0,0,1-.661,6.812Z" transform="translate(185.009 337.801)" fill="#093f68"/>
    <path id="Trazado_218" data-name="Trazado 218" d="M211.739,187.36H398.031a15.805,15.805,0,0,1,15.805,15.805V311.819H196V203.165a15.805,15.805,0,0,1,15.739-15.805Z" transform="translate(199.983 299.391)" fill="#f56132"/>
    <path id="Trazado_219" data-name="Trazado 219" d="M416.143,317.432H198.307A3.307,3.307,0,0,1,195,314.125V205.472a19.112,19.112,0,0,1,19.112-19.112H400.337a19.112,19.112,0,0,1,19.112,19.112V314.125A3.307,3.307,0,0,1,416.143,317.432Zm-214.529-6.613H412.9V205.472a12.532,12.532,0,0,0-12.5-12.5H214.046a12.532,12.532,0,0,0-12.5,12.5Z" transform="translate(197.675 297.084)" fill="#093f68"/>
    <path id="Trazado_220" data-name="Trazado 220" d="M192.78,225h239.1a15.938,15.938,0,0,1-15.938,15.938H208.718A15.938,15.938,0,0,1,192.78,225Z" transform="translate(192.517 386.21)" fill="#f56132"/>
    <path id="Trazado_221" data-name="Trazado 221" d="M418.213,246.571H211.024a19.277,19.277,0,0,1-19.244-19.244,3.307,3.307,0,0,1,3.307-3.307H434.151a3.307,3.307,0,0,1,3.307,3.307A19.277,19.277,0,0,1,418.213,246.571Zm-219.39-16a12.664,12.664,0,0,0,12.2,9.324H418.213a12.664,12.664,0,0,0,12.366-9.325Z" transform="translate(190.21 383.949)" fill="#093f68"/>
    <path id="Trazado_222" data-name="Trazado 222" d="M230.5,234.491a3.306,3.306,0,0,1-3.307-3.307V171.667a3.307,3.307,0,0,1,6.613,0v59.518A3.306,3.306,0,0,1,230.5,234.491Z" transform="translate(271.939 255.696)" fill="#093f68"/>
    <path id="Trazado_223" data-name="Trazado 223" d="M133.36,200.91h92.584v65.271a30.387,30.387,0,0,1-30.387,30.387H163.747a30.387,30.387,0,0,1-30.387-30.387Z" transform="translate(55.616 330.645)" fill="#ffbc0e"/>
    <path id="Trazado_224" data-name="Trazado 224" d="M197.863,302.182H166.054a33.727,33.727,0,0,1-33.694-33.694V203.217a3.307,3.307,0,0,1,3.307-3.307H228.25a3.307,3.307,0,0,1,3.307,3.307v65.271A33.727,33.727,0,0,1,197.863,302.182Zm-58.89-95.659v61.965a27.081,27.081,0,0,0,27.081,27.081h31.809a27.114,27.114,0,0,0,27.081-27.081V206.523Z" transform="translate(53.31 328.338)" fill="#093f68"/>
    <rect id="Rect치ngulo_21" data-name="Rect치ngulo 21" width="591.653" height="38.852" rx="5.88" transform="translate(113.421 627.214)" fill="#725858"/>
    <path id="Trazado_225" data-name="Trazado 225" d="M685.638,274.317H132.858a22.749,22.749,0,1,1,0-45.465h552.78a22.749,22.749,0,1,1,0,45.465Zm-552.78-38.852a16.136,16.136,0,1,0,0,32.239h552.78a16.136,16.136,0,1,0,0-32.239Z" transform="translate(0 395.055)" fill="#093f68"/>
    <path id="Trazado_226" data-name="Trazado 226" d="M169.066,262.369h-5.39a3.307,3.307,0,0,1-3.307-3.307V206.587a3.306,3.306,0,0,1,3.307-3.307h5.39a29.759,29.759,0,1,1,0,59.088Zm-2.083-6.613h2.083a23.146,23.146,0,1,0,0-45.994h-2.083Z" transform="translate(117.869 335.615)" fill="#093f68"/>
    <rect id="Rect치ngulo_22" data-name="Rect치ngulo 22" width="212.546" height="178.786" rx="2.5" transform="translate(122.382 241.037)" fill="#fff"/>
    <path id="Trazado_227" data-name="Trazado 227" d="M319.806,297.379H123.76a11.573,11.573,0,0,1-11.54-11.573V123.52a11.54,11.54,0,0,1,11.54-11.54H319.806a11.573,11.573,0,0,1,11.573,11.54V285.806a11.573,11.573,0,0,1-11.573,11.573ZM123.76,118.659a4.927,4.927,0,0,0-4.927,4.927V285.872a4.96,4.96,0,0,0,4.927,4.96H319.806a4.96,4.96,0,0,0,4.96-4.96V123.52a4.96,4.96,0,0,0-4.96-4.861Z" transform="translate(6.856 125.751)" fill="#093f68"/>
    <path id="Trazado_228" data-name="Trazado 228" d="M121.453,113H317.5a8.266,8.266,0,0,1,8.266,8.266v14.317H113.22V121.266A8.266,8.266,0,0,1,121.453,113Z" transform="translate(9.162 128.147)" fill="#ffb100"/>
    <path id="Trazado_229" data-name="Trazado 229" d="M328.072,141.177H115.527a3.307,3.307,0,0,1-3.307-3.307V123.52a11.54,11.54,0,0,1,11.54-11.54H319.806a11.573,11.573,0,0,1,11.573,11.54v14.35A3.307,3.307,0,0,1,328.072,141.177Zm-209.239-6.613H324.766V123.52a4.96,4.96,0,0,0-4.96-4.861H123.76a4.927,4.927,0,0,0-4.927,4.927Z" transform="translate(6.856 125.796)" fill="#093f68"/>
    <circle id="Elipse_13" data-name="Elipse 13" cx="4.431" cy="4.431" r="4.431" transform="translate(134.451 247.924)" fill="#093f68"/>
    <circle id="Elipse_14" data-name="Elipse 14" cx="4.431" cy="4.431" r="4.431" transform="translate(146.851 247.924)" fill="#093f68"/>
    <circle id="Elipse_15" data-name="Elipse 15" cx="4.431" cy="4.431" r="4.431" transform="translate(159.283 247.924)" fill="#093f68"/>
    <path id="Trazado_230" data-name="Trazado 230" d="M171.158,149.375l-30.586,13.954v.232l30.586,13.954v15.276L122.32,170.537V156.352L171.158,134Z" transform="translate(30.152 176.527)" fill="#093f68"/>
    <path id="Trazado_231" data-name="Trazado 231" d="M168.2,127.33l10.978,3.935-28.932,87.558-10.912-3.935Z" transform="translate(69.359 161.148)" fill="#093f68"/>
    <path id="Trazado_232" data-name="Trazado 232" d="M153.63,177.514l30.586-13.954v-.232L153.63,149.375V134l48.8,22.253v14.185l-48.8,22.253Z" transform="translate(102.329 176.527)" fill="#093f68"/>
  </g>
</svg>
