<svg xmlns="http://www.w3.org/2000/svg" width="780" height="554.826" viewBox="0 0 780 554.826">
  <g id="hero__image" transform="translate(-41.12 -30.459)">
    <path id="Trazado_84" data-name="Trazado 84" d="M271.326,307.508a65.371,65.371,0,0,1-18.705-2.514c-16.04-4.827-30.4-18.278-39.346-36.857-8.02-16.644-11.238-34.972-14.331-52.8a1.182,1.182,0,0,1,1.006-1.408,1.207,1.207,0,0,1,1.408.98c3.067,17.6,6.235,35.751,14.1,52.093,8.674,17.976,22.476,30.924,37.863,35.575,11.188,3.344,23.382,2.514,34.9,1.156,24.664-2.916,39.7-10.559,46.009-23.331.226-.5.453-.955.6-1.383-3.947,1.106-7.844,2.514-11.666,3.947-3.168,1.157-6.436,2.338-9.7,3.369a104.236,104.236,0,0,1-49.2,3.218c-7.92-1.408-12.747-5.229-12.923-10.207s4.123-8.95,11.791-11.163a123.344,123.344,0,0,1,64.488-1.182c6.034,1.508,9.353,4.023,10.057,7.668a9.894,9.894,0,0,1,.151,1.207c.956-.226,1.911-.427,2.891-.6,10.207-1.81,20.867-.779,31.175.2,14.632,1.408,28.46,2.74,40.93-3.394a1.232,1.232,0,0,1,1.634.578,1.207,1.207,0,0,1-.553,1.634c-13.1,6.411-27.907,5.028-42.237,3.62-10.057-.981-20.641-1.986-30.522-.226-1.207.2-2.514.478-3.6.754a16.272,16.272,0,0,1-1.232,3.218c-6.688,13.576-22.376,21.647-47.894,24.689a144.156,144.156,0,0,1-17.1,1.157Zm26.222-41.835a121.18,121.18,0,0,0-33.74,4.8c-3.067.88-10.207,3.545-10.057,8.749s8.372,7.542,10.886,7.869a101.974,101.974,0,0,0,48.045-2.967c3.218-1.006,6.461-2.187,9.579-3.319,4.3-1.584,8.674-3.193,13.174-4.375a5.3,5.3,0,0,0,0-1.282c-.578-2.665-3.319-4.551-8.372-5.833a120.676,120.676,0,0,0-29.516-3.645Z" transform="translate(238.932 277.773)" fill="#e6e7e8"/>
    <rect id="Rectángulo_9" data-name="Rectángulo 9" width="187.58" height="373.903" rx="4.76" transform="translate(630.736 200.517)" fill="#fff"/>
    <path id="Trazado_85" data-name="Trazado 85" d="M451.979,473.951H288.334a13.2,13.2,0,0,1-13.174-13.174V110.784A13.2,13.2,0,0,1,288.334,97.61H451.979a13.2,13.2,0,0,1,13.2,13.174V460.777a13.2,13.2,0,0,1-13.2,13.174Zm-163.645-373.9A10.735,10.735,0,0,0,277.6,110.784V460.777a10.736,10.736,0,0,0,10.735,10.735H451.979a10.735,10.735,0,0,0,10.735-10.735V110.784a10.735,10.735,0,0,0-10.735-10.735Z" transform="translate(354.369 101.675)" fill="#231f20"/>
    <rect id="Rectángulo_10" data-name="Rectángulo 10" width="167.869" height="287.743" transform="translate(640.591 234.333)" fill="#ffb100"/>
    <rect id="Rectángulo_11" data-name="Rectángulo 11" width="46.637" height="26.926" rx="2.92" transform="translate(701.207 536.079)" fill="#fff"/>
    <path id="Trazado_86" data-name="Trazado 86" d="M343.668,260.43h-31.9a8.573,8.573,0,0,1-8.573-8.573V239.663a8.573,8.573,0,0,1,8.573-8.573h31.9a8.573,8.573,0,0,1,8.6,8.573v12.194A8.6,8.6,0,0,1,343.668,260.43Zm-31.9-26.9a6.135,6.135,0,0,0-6.135,6.134v12.194a6.135,6.135,0,0,0,6.135,6.135h31.9a6.135,6.135,0,0,0,6.135-6.135V239.663a6.135,6.135,0,0,0-6.135-6.134Z" transform="translate(396.81 303.782)" fill="#e6e7e8"/>
    <path id="Trazado_87" data-name="Trazado 87" d="M349.2,106.469H301.432a1.207,1.207,0,0,1-1.232-1.207,1.232,1.232,0,0,1,1.232-1.232H349.2a1.207,1.207,0,0,1,1.207,1.232,1.182,1.182,0,0,1-1.207,1.207Z" transform="translate(392.283 111.396)" fill="#e6e7e8"/>
    <path id="Trazado_88" data-name="Trazado 88" d="M329.488,106.469h-6.411a1.207,1.207,0,0,1-1.207-1.207,1.232,1.232,0,0,1,1.207-1.232h6.411a1.232,1.232,0,0,1,1.232,1.232,1.207,1.207,0,0,1-1.232,1.207Z" transform="translate(425.094 111.396)" fill="#e6e7e8"/>
    <path id="Trazado_89" data-name="Trazado 89" d="M418.993,232.079H293.663a9.4,9.4,0,0,1-9.4-9.4v-61.9a9.4,9.4,0,0,1,9.4-9.428H418.892a9.428,9.428,0,0,1,9.428,9.428v61.9a9.428,9.428,0,0,1-9.327,9.4Zm-125.33-78.265a6.964,6.964,0,0,0-6.964,6.964v61.9a6.964,6.964,0,0,0,6.964,6.964H418.892a6.964,6.964,0,0,0,6.964-6.964v-61.9a6.964,6.964,0,0,0-6.964-6.964Z" transform="translate(368.147 183.045)" fill="#fff"/>
    <path id="Trazado_90" data-name="Trazado 90" d="M285.508,211.67a1.232,1.232,0,0,1-.754-2.187l62.049-49.1a1.232,1.232,0,0,1,1.634.126l37.033,38.416a1.232,1.232,0,0,1,0,1.735,1.207,1.207,0,0,1-1.71,0l-36.254-37.712-61.194,48.422A1.181,1.181,0,0,1,285.508,211.67Z" transform="translate(368.207 196.339)" fill="#fff"/>
    <path id="Trazado_91" data-name="Trazado 91" d="M369.4,191.82a1.207,1.207,0,0,1-.905-.427l-20.566-23.306L324.42,187.722a1.214,1.214,0,0,1-1.559-1.861l24.412-20.415a1.207,1.207,0,0,1,1.685,0L370.3,189.657a1.207,1.207,0,0,1,0,1.71,1.106,1.106,0,0,1-.905.453Z" transform="translate(425.938 203.87)" fill="#fff"/>
    <path id="Trazado_92" data-name="Trazado 92" d="M329.944,175.877a9.529,9.529,0,1,1,9.5-9.5A9.529,9.529,0,0,1,329.944,175.877Zm0-16.593a7.09,7.09,0,1,0,7.065,7.09,7.09,7.09,0,0,0-7.065-7.09Z" transform="translate(422.853 191.327)" fill="#fff"/>
    <rect id="Rectángulo_12" data-name="Rectángulo 12" width="23.96" height="27.756" rx="3.42" transform="translate(656.204 475.237)" fill="#fff"/>
    <rect id="Rectángulo_13" data-name="Rectángulo 13" width="23.96" height="27.756" rx="3.42" transform="translate(693.765 475.237)" fill="#fff"/>
    <rect id="Rectángulo_14" data-name="Rectángulo 14" width="23.96" height="27.756" rx="3.42" transform="translate(731.326 475.237)" fill="#fff"/>
    <rect id="Rectángulo_15" data-name="Rectángulo 15" width="23.96" height="27.756" rx="3.42" transform="translate(768.887 475.237)" fill="#fff"/>
    <path id="Trazado_93" data-name="Trazado 93" d="M424.283,122.559H286.232A1.207,1.207,0,0,1,285,121.352a1.232,1.232,0,0,1,1.232-1.232H424.283a1.232,1.232,0,0,1,1.232,1.232,1.207,1.207,0,0,1-1.232,1.207Z" transform="translate(369.268 135.759)" fill="#fff"/>
    <path id="Trazado_94" data-name="Trazado 94" d="M424.3,130.344H286.247a1.257,1.257,0,1,1,0-2.514H424.3a1.257,1.257,0,0,1,0,2.514Z" transform="translate(369.253 147.433)" fill="#fff"/>
    <path id="Trazado_95" data-name="Trazado 95" d="M424.283,138.039H286.232A1.232,1.232,0,0,1,285,136.807a1.207,1.207,0,0,1,1.232-1.207H424.283a1.207,1.207,0,0,1,1.232,1.207,1.232,1.232,0,0,1-1.232,1.232Z" transform="translate(369.268 159.197)" fill="#fff"/>
    <path id="Trazado_96" data-name="Trazado 96" d="M424.3,145.824H286.247a1.257,1.257,0,1,1,0-2.514H424.3a1.257,1.257,0,0,1,0,2.514Z" transform="translate(369.253 170.872)" fill="#fff"/>
    <path id="Trazado_97" data-name="Trazado 97" d="M424.3,193.764H286.247a1.257,1.257,0,1,1,0-2.514H424.3a1.257,1.257,0,0,1,0,2.514Z" transform="translate(369.253 243.459)" fill="#fff"/>
    <path id="Trazado_98" data-name="Trazado 98" d="M424.283,201.469H286.232A1.207,1.207,0,0,1,285,200.262a1.232,1.232,0,0,1,1.232-1.232H424.283a1.232,1.232,0,0,1,1.232,1.232,1.207,1.207,0,0,1-1.232,1.207Z" transform="translate(369.268 255.239)" fill="#fff"/>
    <path id="Trazado_99" data-name="Trazado 99" d="M361.437,68.426s3.092-13.174.226-20.666A10.786,10.786,0,0,0,350.953,41s-20.817-4.626-26.826-10.057l2.715,9.6A27.656,27.656,0,0,1,316.434,37.7a9.478,9.478,0,0,0,2.69,9.252,11.113,11.113,0,0,1-9.6,0s5.707,14,18.982,12.571C337.15,58.244,352.462,71.317,361.437,68.426Z" transform="translate(406.395 0.728)" fill="#fff"/>
    <path id="Trazado_100" data-name="Trazado 100" d="M359.27,70.813c-4.752,0-10.308-2.514-15.738-5.028s-10.534-5.028-14.18-4.5c-14.054,1.634-20.113-13.048-20.264-13.2a1.232,1.232,0,0,1,1.76-1.508,9.076,9.076,0,0,0,6.788.654,11.012,11.012,0,0,1-1.684-9.051,1.132,1.132,0,0,1,.654-.779,1.333,1.333,0,0,1,1.031,0,31.953,31.953,0,0,0,8.246,2.514l-2.238-7.894a1.257,1.257,0,0,1,.528-1.383,1.207,1.207,0,0,1,1.458.151c5.43,5.028,24.11,9.277,26.122,9.755a11.842,11.842,0,0,1,11.816,7.542c2.992,7.744,0,20.817-.176,21.37a1.157,1.157,0,0,1-.779.88A10.56,10.56,0,0,1,359.27,70.813Zm2.942-1.659ZM330.207,58.695c4.123,0,9.1,2.338,14.356,4.777,6.009,2.816,12.219,5.707,16.618,4.7.578-2.766,2.514-13.149.126-19.233a9.579,9.579,0,0,0-9.579-6.009h-.377c-.754-.176-16.417-3.671-24.463-8.322l1.785,6.31a1.257,1.257,0,0,1-.2,1.081,1.232,1.232,0,0,1-.98.478,27.1,27.1,0,0,1-9.453-2.313,7.543,7.543,0,0,0,2.514,6.562,1.282,1.282,0,0,1,.427,1.081,1.182,1.182,0,0,1-.679.955,13.274,13.274,0,0,1-7.542,1.006c2.313,3.771,7.542,10.057,16.317,9.026a8.272,8.272,0,0,1,1.131-.1Z" transform="translate(405.619 0)" fill="#231f20"/>
    <path id="Trazado_101" data-name="Trazado 101" d="M377.326,146.643s18.152-39.7,15.94-65.72-19.258-27.656-25.141-27.982-37.234-4.551-48.674,9.453-8.473,81.458-8.473,81.458Z" transform="translate(408.079 32.756)" fill="#ffb100"/>
    <path id="Trazado_102" data-name="Trazado 102" d="M343.188,83.282A235.954,235.954,0,0,0,305.1,105.2C294.489,112.4,288.48,188.3,288.48,188.3s2.187,12.194,16.292,10.283l37.134-84.55S355.155,82.955,343.188,83.282Z" transform="translate(374.537 79.976)" fill="#231f20"/>
    <path id="Trazado_103" data-name="Trazado 103" d="M302.613,200.634a14.557,14.557,0,0,1-14.607-11.515,1.232,1.232,0,0,1,0-.3c.629-7.844,6.386-76.681,17.146-84a239.486,239.486,0,0,1,38.341-21.974.83.83,0,0,1,.428,0,5.405,5.405,0,0,1,4.852,2.313c4.7,6.914-3.972,27.655-5.028,30.17L306.61,199.905a1.207,1.207,0,0,1-.955.7A22.32,22.32,0,0,1,302.613,200.634ZM290.52,188.868c.277,1.307,2.69,10.434,14.23,9.227l36.857-83.9c2.514-6.034,8.548-22.828,5.2-27.656a2.891,2.891,0,0,0-2.514-1.257,246.593,246.593,0,0,0-37.712,21.672C298.238,112.463,292.129,167.749,290.52,188.868Z" transform="translate(373.805 79.28)" fill="#231f20"/>
    <path id="Trazado_104" data-name="Trazado 104" d="M385.347,86.562s-53.325,1.534-65.87-.3c0,0-.7.151-9.906,17.1s4.023,94.406,4.023,94.406,12.118,12.822,21.7,10.987l11.339-88.322s19.334.578,30.17-7.115C384.241,107.907,383.914,96.367,385.347,86.562Z" transform="translate(401.541 84.49)" fill="#231f20"/>
    <path id="Trazado_105" data-name="Trazado 105" d="M334.07,210.808c-9.6,0-20.113-11.062-20.641-11.565a1.132,1.132,0,0,1-.3-.629c-.553-3.168-13.2-77.938-3.9-95.185s10.057-17.6,10.735-17.6h.427c12.294,1.835,65.141.327,65.669.3a1.182,1.182,0,0,1,1.232,1.408c-.251,1.81-.478,3.7-.679,5.581-.93,8.5-1.886,17.272-8.473,22-9.554,6.838-25.342,7.341-29.692,7.341L337.238,209.45a1.231,1.231,0,0,1-.98,1.056A12.417,12.417,0,0,1,334.07,210.808Zm-18.6-12.973c1.684,1.71,11.515,11.213,19.459,10.484l11.238-87.391a1.182,1.182,0,0,1,1.257-1.056c.2,0,19.032.453,29.315-6.889,5.682-4.1,6.587-12.319,7.542-20.289.151-1.408.3-2.841.478-4.224-8.6.226-51.464,1.282-63.935-.277-.729,1.056-2.967,4.6-9.378,16.392-8.649,15.814,3.042,87.391,4.023,93.249Z" transform="translate(400.801 83.839)" fill="#231f20"/>
    <path id="Trazado_106" data-name="Trazado 106" d="M354.972,56.19S346.525,72.456,341.547,80.8a173.876,173.876,0,0,1-15.814,20.339s-38.341,13.627-38.567,14.356,3.62,13.627,3.62,13.627,40.226-2.891,46.863-6.034,20.113-18.6,20.113-18.6Z" transform="translate(372.533 38.96)" fill="#ffb100"/>
    <path id="Trazado_107" data-name="Trazado 107" d="M327.255,75.568l2.288,13.878a10.308,10.308,0,0,0,13.224,3.268c8.774-3.872,8.774-10.509,8.774-10.509l-4.676-25.644s-8.1-3.143-12.294-18.931c0,0-20.113,1.534-18.73,9.051,0,0-.251,14.155,1.886,21.043A12.42,12.42,0,0,0,327.255,75.568Z" transform="translate(415.862 10.857)" fill="#fff"/>
    <path id="Trazado_108" data-name="Trazado 108" d="M338.6,95.837a11.867,11.867,0,0,1-9.327-5.028,1.685,1.685,0,0,1-.176-.453l-2.162-13.1a12.873,12.873,0,0,1-9.654-8.448c-2.187-7.014-1.961-20.867-1.961-21.446a5.028,5.028,0,0,1,1.106-3.9c3.947-5.028,17.247-6.235,18.755-6.336a1.232,1.232,0,0,1,1.282.905c3.947,14.859,11.49,18.077,11.565,18.1a1.207,1.207,0,0,1,.754.905l4.676,25.644c0,.528,0,7.769-9.428,11.867a13.5,13.5,0,0,1-5.431,1.282Zm-7.14-6.109a9.1,9.1,0,0,0,11.59,2.64c7.794-3.419,8-9.177,8-9.428L346.494,58.15c-2.062-1.081-8.4-5.431-12.118-18.454-4.375.453-13.451,2.011-16.04,5.33a2.64,2.64,0,0,0-.578,2.187c0,.377-.2,14.28,1.86,20.918A10.811,10.811,0,0,0,328.09,75.1l.5.151a1.282,1.282,0,0,1,.629.88Z" transform="translate(415.102 10.098)" fill="#231f20"/>
    <path id="Trazado_109" data-name="Trazado 109" d="M326,49.206a6.11,6.11,0,0,1,1.458-3.52,10.71,10.71,0,0,1,2.891-2.187,4.627,4.627,0,0,1,1.861-.679,3.746,3.746,0,0,1,1.383.251,4.7,4.7,0,0,1,2.514,1.886,5.431,5.431,0,0,1,.578,2.514,10.21,10.21,0,0,1-.2,2.891,7.292,7.292,0,0,1-3.293,4.576,7.543,7.543,0,0,1-5.556.88" transform="translate(431.348 18.716)" fill="#fff"/>
    <path id="Trazado_110" data-name="Trazado 110" d="M330.088,58.084a9,9,0,0,1-2.011-.251,1.232,1.232,0,0,1-.905-1.483,1.207,1.207,0,0,1,1.483-.88,6.386,6.386,0,0,0,4.651-.729,6.235,6.235,0,0,0,2.741-3.822,9.829,9.829,0,0,0,.176-2.514,4.3,4.3,0,0,0-.427-2.011,3.494,3.494,0,0,0-1.936-1.383,4,4,0,0,0-.905-.176,3.419,3.419,0,0,0-1.332.553,9.176,9.176,0,0,0-2.514,1.886,4.7,4.7,0,0,0-1.156,2.816,1.257,1.257,0,0,1-1.307,1.157,1.207,1.207,0,0,1-1.131-1.307,7.341,7.341,0,0,1,1.735-4.249,11.463,11.463,0,0,1,3.218-2.514,5.909,5.909,0,0,1,2.514-.855,5.381,5.381,0,0,1,1.86.327,5.707,5.707,0,0,1,3.243,2.514,6.713,6.713,0,0,1,.754,3.143,12.565,12.565,0,0,1-.226,3.218,8.6,8.6,0,0,1-8.347,6.612Z" transform="translate(430.603 17.959)" fill="#231f20"/>
    <path id="Trazado_111" data-name="Trazado 111" d="M322.609,43.88s-3.771,7.844-2.514,8.925,4.4-.2,4.4-.2" transform="translate(422.017 20.321)" fill="#fff"/>
    <path id="Trazado_112" data-name="Trazado 112" d="M322.4,55.171a3.57,3.57,0,0,1-2.313-.7c-.528-.427-2.062-1.684,2.137-10.383a1.232,1.232,0,0,1,1.609-.578,1.207,1.207,0,0,1,.578,1.634,25.848,25.848,0,0,0-2.514,7.542,5.456,5.456,0,0,0,2.967-.478,1.257,1.257,0,0,1,1.609.654,1.232,1.232,0,0,1-.679,1.609,9.68,9.68,0,0,1-3.394.7ZM321.823,52.833Z" transform="translate(421.319 19.589)" fill="#231f20"/>
    <ellipse id="Elipse_6" data-name="Elipse 6" cx="1.207" cy="1.684" rx="1.207" ry="1.684" transform="translate(749.289 60.642) rotate(-5.8)" fill="#231f20"/>
    <ellipse id="Elipse_7" data-name="Elipse 7" cx="1.207" cy="1.684" rx="1.207" ry="1.684" transform="translate(739.131 62.427) rotate(-5.4)" fill="#231f20"/>
    <path id="Trazado_113" data-name="Trazado 113" d="M325.866,56.748a18.932,18.932,0,0,1-6.713-1.383,1.207,1.207,0,0,1-.628-1.609,1.257,1.257,0,0,1,1.609-.629s5.707,2.514,9.554.327a7.769,7.769,0,0,0,3.52-5.958,1.273,1.273,0,0,1,2.514.4,9.312,9.312,0,0,1-9.855,8.85Z" transform="translate(419.866 24.172)" fill="#231f20"/>
    <path id="Trazado_114" data-name="Trazado 114" d="M320.34,54.643s8.95.553,13.576-3.193c0,0-3.721,12.571-11.992,12.571Z" transform="translate(422.778 31.783)" fill="#231f20"/>
    <path id="Trazado_115" data-name="Trazado 115" d="M322.678,66.116a1.182,1.182,0,0,1-1.182-1.031l-1.584-9.5a1.182,1.182,0,0,1,.3-1.031,1.207,1.207,0,0,1,.981-.4s8.548.478,12.721-2.916a1.232,1.232,0,0,1,1.936,1.307c-.151.528-4.048,13.425-13.149,13.576Zm0-9.478,1.157,6.939c4.274-.729,7.115-5.405,8.6-8.624a27.983,27.983,0,0,1-9.981,1.659Z" transform="translate(422.099 31.07)" fill="#231f20"/>
    <path id="Trazado_116" data-name="Trazado 116" d="M366.118,55.039c7.165,1.257,36.153,68.284,26.222,75.927-15.487,11.942-69.39,0-69.39,0l4.4-20.792s34.645.981,35.2-6.134S342.435,63.99,345.1,59.062,366.118,55.039,366.118,55.039Z" transform="translate(426.729 37.119)" fill="#ffb100"/>
    <path id="Trazado_117" data-name="Trazado 117" d="M359.406,81a77.336,77.336,0,0,1-17.222-.83,52.546,52.546,0,0,0-12.872-1.483,48.247,48.247,0,0,0-16.593,3.8,1.282,1.282,0,0,0-.578.377c-.5.7.7,1.408,1.584,1.433a23.557,23.557,0,0,0,6.763-.855,64.437,64.437,0,0,0-15.311,8.146c-.553.377-1.131.98-.88,1.584s1.358.5,2.062.176l12.37-5.657a31.276,31.276,0,0,0-8.8,5.355c-.352.327-.779.754-.654,1.232s1.408.679,2.187.3a73.834,73.834,0,0,0,10.76-6.587l-7.542,5.883a1.252,1.252,0,0,0,1.207,1.157,3.519,3.519,0,0,0,1.76-.6L326.17,89.4l-5.3,3.721c-.855.578-1.81,1.534-1.383,2.514s2.112.754,3.218.277a63.809,63.809,0,0,1,13.626-4.173,22.777,22.777,0,0,1,5.028-1.031,46.665,46.665,0,0,1,7.769,1.71c3.872.855,7.718,1.735,11.565,2.514" transform="translate(398.394 73.027)" fill="#fff"/>
    <path id="Trazado_118" data-name="Trazado 118" d="M321.354,98.21a3.041,3.041,0,0,1-1.081-.176,2.238,2.238,0,0,1-1.282-1.207,1.984,1.984,0,0,1-.176-.779h0a4.274,4.274,0,0,1-2.363.779,2.476,2.476,0,0,1-2.137-1.433c-.528.3-1.081.578-1.634.855a3.319,3.319,0,0,1-2.766.2,1.81,1.81,0,0,1-1.006-1.282,1.911,1.911,0,0,1,0-.754l-1.358.629a3.369,3.369,0,0,1-2.514.251,1.81,1.81,0,0,1-1.056-1.006c-.226-.478-.5-1.71,1.232-2.942a66.068,66.068,0,0,1,8.749-5.33,2.966,2.966,0,0,1-2.187-1.383,1.71,1.71,0,0,1,.151-1.76,2.312,2.312,0,0,1,1.031-.754,49.124,49.124,0,0,1,17-3.872,45.532,45.532,0,0,1,11.54,1.207l1.584.277a76.884,76.884,0,0,0,17,.83h0a1.131,1.131,0,0,1,1.131,1.081,1.156,1.156,0,0,1-1.081,1.157,81.558,81.558,0,0,1-17.473-.855l-1.609-.3a45.079,45.079,0,0,0-11.012-1.182,48.1,48.1,0,0,0-15.412,3.369,21.042,21.042,0,0,0,6.235-.8,1.113,1.113,0,0,1,.7,2.112A64.289,64.289,0,0,0,306.8,92.88l9.227-4.224c.955-.478,1.911-.93,2.891-1.307a1.109,1.109,0,0,1,.88,2.036L317,90.667a30.5,30.5,0,0,0-5.28,3.495A69.843,69.843,0,0,0,322.209,87.7a1.121,1.121,0,0,1,1.358,1.785l-6.084,4.626h.151l8.523-5.028a1.131,1.131,0,0,1,1.207,1.886l-5.33,3.721c-.855.6-1.031,1.056-1.006,1.106a2.514,2.514,0,0,0,1.76-.3,65.367,65.367,0,0,1,13.9-4.274l1.609-.427a12.019,12.019,0,0,1,3.7-.578,25.142,25.142,0,0,1,5.657,1.106c.8.226,1.584.453,2.338.6l11.565,2.665a1.11,1.11,0,0,1-.5,2.162c-3.847-.88-7.693-1.785-11.565-2.514-.779-.176-1.584-.4-2.514-.629a23.784,23.784,0,0,0-5.028-1.031,9.655,9.655,0,0,0-3.067.553c-.578.151-1.156.327-1.76.427a63.961,63.961,0,0,0-13.425,4.2A6.109,6.109,0,0,1,321.354,98.21Z" transform="translate(397.754 72.339)" fill="#231f20"/>
    <path id="Trazado_119" data-name="Trazado 119" d="M320.713,58.53C318.8,60.466,314,90.937,312.24,105.318" transform="translate(410.513 42.503)" fill="#fff"/>
    <path id="Trazado_120" data-name="Trazado 120" d="M312.911,107.062h-.151a1.106,1.106,0,0,1-.955-1.232c1.081-8.95,6.26-44.877,8.8-47.467a1.131,1.131,0,0,1,1.609,1.559c-1.634,2.238-6.26,30.321-8.2,46.185A1.131,1.131,0,0,1,312.911,107.062Z" transform="translate(409.842 41.89)" fill="#231f20"/>
    <path id="Trazado_121" data-name="Trazado 121" d="M286.85,88.55l.855,5.707L366.6,105.772l-1.333-5.883Z" transform="translate(372.069 87.957)" fill="#fff"/>
    <path id="Trazado_122" data-name="Trazado 122" d="M367.338,107.75h-.176l-78.894-11.54a1.232,1.232,0,0,1-1.031-1.031l-.855-5.707a1.182,1.182,0,0,1,.327-1.056,1.333,1.333,0,0,1,1.056-.352l78.416,11.364a1.207,1.207,0,0,1,1.006.93l1.232,5.908a1.131,1.131,0,0,1-.277,1.081A1.207,1.207,0,0,1,367.338,107.75ZM289.4,93.923l76.254,11.138-.754-3.344L288.922,90.73Z" transform="translate(371.33 87.211)" fill="#231f20"/>
    <path id="Trazado_123" data-name="Trazado 123" d="M286.85,97.741S304.8,82.33,305.4,82.481s81.282,9.805,81.282,9.805L365.165,109.08Z" transform="translate(372.069 78.766)" fill="#fff"/>
    <path id="Trazado_124" data-name="Trazado 124" d="M365.908,111.105h0L287.417,99.666a1.257,1.257,0,0,1-1.006-.88,1.181,1.181,0,0,1,.377-1.257c18.454-15.839,18.856-15.713,19.635-15.537,1.207.2,53.627,6.486,81.156,9.78a1.232,1.232,0,0,1,1.031.905,1.157,1.157,0,0,1-.427,1.282l-21.421,16.794a1.206,1.206,0,0,1-.855.352ZM290.484,97.7l75.223,10.886,18.705-14.657c-24.287-2.916-72.558-8.7-77.938-9.4C304.664,85.662,296.493,92.526,290.484,97.7Z" transform="translate(371.326 77.973)" fill="#231f20"/>
    <path id="Trazado_125" data-name="Trazado 125" d="M319.373,109.058l20.591-17.222-.5-5.456-21.42,16.794Z" transform="translate(419.295 84.672)" fill="#fff"/>
    <path id="Trazado_126" data-name="Trazado 126" d="M320.106,111.023a1.006,1.006,0,0,1-.377,0,1.156,1.156,0,0,1-.8-.88l-1.333-5.883a1.182,1.182,0,0,1,.427-1.232l21.421-16.87a1.232,1.232,0,0,1,1.986.855l.478,5.456a1.206,1.206,0,0,1-.427,1.056l-20.591,17.247A1.282,1.282,0,0,1,320.106,111.023Zm0-6.637.729,3.193L339.39,92.041l-.226-2.514Z" transform="translate(418.561 83.938)" fill="#231f20"/>
    <path id="Trazado_127" data-name="Trazado 127" d="M295.98,119.151,280.82,68.34l83.168,14.18L374.4,130.49Z" transform="translate(362.939 57.357)" fill="#fff"/>
    <path id="Trazado_128" data-name="Trazado 128" d="M374.991,132.5h0L296.5,121.064a1.207,1.207,0,0,1-1.006-.88L280.409,69.4a1.232,1.232,0,0,1,1.383-1.559l83.142,14.255a1.207,1.207,0,0,1,.981.93l10.358,48.1a1.157,1.157,0,0,1-.3,1.081,1.207,1.207,0,0,1-.98.3Zm-77.486-13.677,75.927,10.987-9.78-45.456L283.2,70.656Z" transform="translate(362.243 56.575)" fill="#231f20"/>
    <path id="Trazado_129" data-name="Trazado 129" d="M344.57,133.565h-.2l-16.82-2.891a1.257,1.257,0,0,1-1.031-1.182l-.528-20.113a1.182,1.182,0,0,1,1.106-1.232l29.742-3.067L343.615,59.6a1.229,1.229,0,0,1,2.363-.679l13.6,46.788a1.182,1.182,0,0,1-.151,1.006,1.282,1.282,0,0,1-.88.553l-30.17,3.092.5,18.026,15.839,2.715a1.262,1.262,0,0,1-.226,2.514Z" transform="translate(431.332 41.76)" fill="#231f20"/>
    <path id="Trazado_130" data-name="Trazado 130" d="M299.759,123.889a54.38,54.38,0,0,0-4.35-3.62c-3.268-2.514-10.283-6.059-12.294-.277-1.257,3.57.679,8.322,2.011,11.615a45.608,45.608,0,0,0,11.741,16.468c4.45,4.023,18.63,9.83,17.6-1.383a16.517,16.517,0,0,0-1.911-5.783,59.056,59.056,0,0,0-12.8-17.021Z" transform="translate(365.798 130.833)" fill="#fff"/>
    <path id="Trazado_131" data-name="Trazado 131" d="M309.9,154.994a23.08,23.08,0,0,1-13.1-5.431,46.787,46.787,0,0,1-12.043-16.87c-1.358-3.369-3.419-8.422-2.036-12.42a5.38,5.38,0,0,1,3.495-3.6c4.1-1.232,9.5,2.514,10.534,3.369a56.149,56.149,0,0,1,4.425,3.671h0a59.964,59.964,0,0,1,13.074,17.348,17.6,17.6,0,0,1,2.011,6.185c.4,4.375-1.408,6.26-3.017,7.04A7.24,7.24,0,0,1,309.9,154.994ZM287.98,118.665a3.794,3.794,0,0,0-1.106.151,3.092,3.092,0,0,0-2.036,2.212c-1.106,3.168.754,7.769,1.986,10.811A44.5,44.5,0,0,0,298.288,147.9c3.168,2.891,10.61,6.084,13.979,4.4,1.433-.729,2.011-2.313,1.785-4.852a15.84,15.84,0,0,0-1.81-5.38,56.694,56.694,0,0,0-12.571-16.694,42.9,42.9,0,0,0-4.249-3.545A14.381,14.381,0,0,0,287.98,118.665Z" transform="translate(365.131 130.175)" fill="#231f20"/>
    <path id="Trazado_132" data-name="Trazado 132" d="M313.37,122.717a5.2,5.2,0,0,0-3.319-.93,4.2,4.2,0,0,0-1.961,1.081,9.7,9.7,0,0,0-2.665,7.97,23.355,23.355,0,0,0,2.64,8.221c3.847,7.995,9.051,15.738,16.769,20.113a14.533,14.533,0,0,0,4.475,1.735c13.727,2.514,8.045-11.113,4.676-17.272a53.25,53.25,0,0,0-20.616-20.918Z" transform="translate(400.08 138.266)" fill="#fff"/>
    <path id="Trazado_133" data-name="Trazado 133" d="M332.936,162.926a18.353,18.353,0,0,1-3.143-.3,15.487,15.487,0,0,1-4.8-1.86c-6.788-3.822-12.42-10.534-17.247-20.541a25.494,25.494,0,0,1-2.766-8.623,10.711,10.711,0,0,1,3.042-8.875,5.028,5.028,0,0,1,2.514-1.358,6.185,6.185,0,0,1,4.048,1.031h0a54.808,54.808,0,0,1,21.069,21.295c2.514,4.475,6.109,12.571,3.092,16.82A6.663,6.663,0,0,1,332.936,162.926Zm-21.722-39.4h-.3a2.967,2.967,0,0,0-1.383.8,8.473,8.473,0,0,0-2.313,7.04,22.176,22.176,0,0,0,2.514,7.844c4.6,9.6,10.057,15.99,16.292,19.56a12.921,12.921,0,0,0,4.123,1.609c3.444.629,5.707.2,6.713-1.207,1.961-2.74-.377-9.252-3.218-14.431a52.37,52.37,0,0,0-20.113-20.415,5.178,5.178,0,0,0-2.313-.8Z" transform="translate(399.396 137.604)" fill="#231f20"/>
    <path id="Trazado_134" data-name="Trazado 134" d="M307.324,119.292a1.207,1.207,0,0,1-1.207-1.106c0-.553-1.383-14.054.93-21.747a1.217,1.217,0,1,1,2.338.679c-2.162,7.241-.88,20.716-.855,20.842a1.232,1.232,0,0,1-1.106,1.332Z" transform="translate(400.621 98.572)" fill="#fff"/>
    <rect id="Rectángulo_16" data-name="Rectángulo 16" width="537.422" height="380.666" rx="7.55" transform="translate(42.251 123.107)" fill="#fff"/>
    <path id="Trazado_135" data-name="Trazado 135" d="M560.692,449.889H61.233A20.239,20.239,0,0,1,41.12,429.776V86.973A20.113,20.113,0,0,1,61.233,66.86H560.692A20.113,20.113,0,0,1,580.8,86.973V429.7a20.113,20.113,0,0,1-20.113,20.189ZM61.233,69.223a17.775,17.775,0,0,0-17.775,17.75V429.7a17.775,17.775,0,0,0,17.775,17.75H560.692a17.775,17.775,0,0,0,17.75-17.75V86.973a17.775,17.775,0,0,0-17.75-17.75Z" transform="translate(0 55.116)" fill="#231f20"/>
    <rect id="Rectángulo_17" data-name="Rectángulo 17" width="497.673" height="311.426" transform="translate(62.113 172.334)" fill="#231f20"/>
    <path id="Trazado_136" data-name="Trazado 136" d="M547.9,400.33H50.227a1.257,1.257,0,0,1-1.257-1.257V87.647a1.257,1.257,0,0,1,1.257-1.257h497.8a1.257,1.257,0,0,1,1.257,1.257V399.073a1.257,1.257,0,0,1-1.383,1.257ZM51.56,397.816H546.845V88.9H51.56Z" transform="translate(11.886 84.687)" fill="#231f20"/>
    <rect id="Rectángulo_18" data-name="Rectángulo 18" width="497.673" height="29.214" transform="translate(62.113 143.12)" fill="#ffb100"/>
    <path id="Trazado_137" data-name="Trazado 137" d="M547.9,106.5H50.227a1.257,1.257,0,0,1-1.257-1.257V76.027a1.257,1.257,0,0,1,1.257-1.257h497.8a1.257,1.257,0,0,1,1.257,1.257v29.214A1.257,1.257,0,0,1,547.9,106.5ZM51.56,103.984H546.845v-26.7H51.56Z" transform="translate(11.886 67.092)" fill="#ffb100"/>
    <path id="Trazado_138" data-name="Trazado 138" d="M115.642,100.689H72.9a1.207,1.207,0,0,1-1.232-1.207A1.232,1.232,0,0,1,72.9,98.25h42.74a1.207,1.207,0,0,1,1.207,1.232,1.182,1.182,0,0,1-1.207,1.207Z" transform="translate(46.257 102.644)" fill="#fff"/>
    <path id="Trazado_139" data-name="Trazado 139" d="M179.718,100.689H94.237a1.182,1.182,0,0,1-1.207-1.207,1.207,1.207,0,0,1,1.207-1.232h85.481a1.232,1.232,0,0,1,1.232,1.232,1.207,1.207,0,0,1-1.232,1.207Z" transform="translate(78.599 102.644)" fill="#ffb100"/>
    <path id="Trazado_140" data-name="Trazado 140" d="M191.5,107.854H106.017a1.257,1.257,0,1,1,0-2.514H191.5a1.257,1.257,0,0,1,0,2.514Z" transform="translate(96.36 113.38)" fill="#ffb100"/>
    <path id="Trazado_141" data-name="Trazado 141" d="M119.647,107.854H76.907a1.257,1.257,0,1,1,0-2.514h42.74a1.257,1.257,0,0,1,0,2.514Z" transform="translate(52.283 113.38)" fill="#fff"/>
    <path id="Trazado_142" data-name="Trazado 142" d="M123.632,114.919H80.892a1.232,1.232,0,0,1-1.232-1.232,1.207,1.207,0,0,1,1.232-1.207h42.74a1.182,1.182,0,0,1,1.207,1.207,1.207,1.207,0,0,1-1.207,1.232Z" transform="translate(58.355 124.19)" fill="#fff"/>
    <path id="Trazado_143" data-name="Trazado 143" d="M210.423,114.919H103.547a1.207,1.207,0,0,1-1.207-1.232,1.182,1.182,0,0,1,1.207-1.207H210.423a1.207,1.207,0,0,1,1.232,1.207A1.232,1.232,0,0,1,210.423,114.919Z" transform="translate(92.695 124.19)" fill="#ffb100"/>
    <path id="Trazado_144" data-name="Trazado 144" d="M127.607,122.029H84.867A1.232,1.232,0,0,1,83.66,120.8a1.207,1.207,0,0,1,1.207-1.207h42.74a1.207,1.207,0,0,1,1.232,1.207,1.232,1.232,0,0,1-1.232,1.232Z" transform="translate(64.411 134.956)" fill="#fff"/>
    <path id="Trazado_145" data-name="Trazado 145" d="M231.386,122.029H104.322a1.232,1.232,0,0,1-1.232-1.232,1.207,1.207,0,0,1,1.232-1.207H231.386a1.207,1.207,0,0,1,1.232,1.207,1.232,1.232,0,0,1-1.232,1.232Z" transform="translate(93.831 134.956)" fill="#ffb100"/>
    <path id="Trazado_146" data-name="Trazado 146" d="M123.127,129.184H80.387a1.257,1.257,0,0,1,0-2.514h42.74a1.257,1.257,0,1,1,0,2.514Z" transform="translate(57.552 145.676)" fill="#fff"/>
    <path id="Trazado_147" data-name="Trazado 147" d="M169.77,129.184H100.857a1.257,1.257,0,0,1,0-2.514H169.77a1.257,1.257,0,1,1,0,2.514Z" transform="translate(88.547 145.676)" fill="#ffb100"/>
    <path id="Trazado_148" data-name="Trazado 148" d="M207.619,129.184H138.757a1.257,1.257,0,0,1,0-2.514H207.67a1.257,1.257,0,0,1,0,2.514Z" transform="translate(145.933 145.676)" fill="#ffb100"/>
    <path id="Trazado_149" data-name="Trazado 149" d="M123.127,136.294H80.387a1.257,1.257,0,0,1,0-2.514h42.74a1.257,1.257,0,1,1,0,2.514Z" transform="translate(57.552 156.442)" fill="#fff"/>
    <path id="Trazado_150" data-name="Trazado 150" d="M164.5,136.294H104.337a1.257,1.257,0,0,1,0-2.514H164.5a1.257,1.257,0,0,1,0,2.514Z" transform="translate(93.816 156.442)" fill="#ffb100"/>
    <path id="Trazado_151" data-name="Trazado 151" d="M156.9,136.294H132.307a1.257,1.257,0,0,1,0-2.514H156.9a1.257,1.257,0,0,1,0,2.514Z" transform="translate(136.166 156.442)" fill="#ffb100"/>
    <path id="Trazado_152" data-name="Trazado 152" d="M123.112,143.359H80.372a1.207,1.207,0,0,1-1.232-1.207,1.232,1.232,0,0,1,1.232-1.232h42.74a1.207,1.207,0,0,1,1.207,1.232,1.182,1.182,0,0,1-1.207,1.207Z" transform="translate(57.568 167.253)" fill="#fff"/>
    <path id="Trazado_153" data-name="Trazado 153" d="M189.822,143.359H101.827a1.207,1.207,0,0,1-1.207-1.207,1.232,1.232,0,0,1,1.207-1.232h87.995a1.232,1.232,0,0,1,1.232,1.232,1.207,1.207,0,0,1-1.232,1.207Z" transform="translate(90.091 167.253)" fill="#ffb100"/>
    <path id="Trazado_154" data-name="Trazado 154" d="M183.722,143.359h-42.74a1.207,1.207,0,0,1-1.232-1.207,1.232,1.232,0,0,1,1.232-1.232h42.74a1.232,1.232,0,0,1,1.207,1.232,1.207,1.207,0,0,1-1.207,1.207Z" transform="translate(149.339 167.253)" fill="#ffb100"/>
    <path id="Trazado_155" data-name="Trazado 155" d="M99.024,150.514H76.4a1.257,1.257,0,0,1,0-2.514H99.024a1.257,1.257,0,0,1,0,2.514Z" transform="translate(51.511 177.973)" fill="#fff"/>
    <path id="Trazado_156" data-name="Trazado 156" d="M192.025,150.514H92.867a1.257,1.257,0,1,1,0-2.514h99.158a1.257,1.257,0,0,1,0,2.514Z" transform="translate(76.449 177.973)" fill="#ffb100"/>
    <path id="Trazado_157" data-name="Trazado 157" d="M119.127,157.634H76.387a1.257,1.257,0,0,1,0-2.514h42.74a1.257,1.257,0,0,1,0,2.514Z" transform="translate(51.496 188.753)" fill="#fff"/>
    <path id="Trazado_158" data-name="Trazado 158" d="M164.3,164.7H78.817a1.207,1.207,0,0,1-1.207-1.232,1.182,1.182,0,0,1,1.207-1.207H164.3a1.207,1.207,0,0,1,1.232,1.207A1.232,1.232,0,0,1,164.3,164.7Z" transform="translate(55.251 199.564)" fill="#fff"/>
    <path id="Trazado_159" data-name="Trazado 159" d="M177.806,164.7H118.447a1.207,1.207,0,0,1-1.207-1.232,1.182,1.182,0,0,1,1.207-1.207h59.359a1.207,1.207,0,0,1,1.232,1.207,1.232,1.232,0,0,1-1.232,1.232Z" transform="translate(115.256 199.564)" fill="#ffb100"/>
    <path id="Trazado_160" data-name="Trazado 160" d="M218.925,164.7H145.437a1.207,1.207,0,0,1-1.207-1.232,1.182,1.182,0,0,1,1.207-1.207h73.488a1.207,1.207,0,0,1,1.207,1.207,1.232,1.232,0,0,1-1.207,1.232Z" transform="translate(156.123 199.564)" fill="#ffb100"/>
    <path id="Trazado_161" data-name="Trazado 161" d="M204.8,171.809H80.352a1.232,1.232,0,0,1-1.232-1.232,1.207,1.207,0,0,1,1.232-1.207H204.8a1.207,1.207,0,0,1,1.232,1.207,1.232,1.232,0,0,1-1.232,1.232Z" transform="translate(57.537 210.33)" fill="#fff"/>
    <path id="Trazado_162" data-name="Trazado 162" d="M189.222,171.809h-55.99A1.232,1.232,0,0,1,132,170.577a1.207,1.207,0,0,1,1.232-1.207h55.99a1.182,1.182,0,0,1,1.207,1.207,1.207,1.207,0,0,1-1.207,1.232Z" transform="translate(137.605 210.33)" fill="#ffb100"/>
    <path id="Trazado_163" data-name="Trazado 163" d="M325.743,171.809H159.257a1.232,1.232,0,0,1-1.207-1.232,1.207,1.207,0,0,1,1.207-1.207H325.743a1.207,1.207,0,0,1,1.232,1.207,1.232,1.232,0,0,1-1.232,1.232Z" transform="translate(177.048 210.33)" fill="#ffb100"/>
    <path id="Trazado_164" data-name="Trazado 164" d="M139.023,178.964H80.167a1.257,1.257,0,1,1,0-2.514h58.856a1.257,1.257,0,1,1,0,2.514Z" transform="translate(57.219 221.05)" fill="#fff"/>
    <path id="Trazado_165" data-name="Trazado 165" d="M151.581,178.964H108.237a1.257,1.257,0,1,1,0-2.514h43.344a1.257,1.257,0,1,1,0,2.514Z" transform="translate(99.721 221.05)" fill="#ffb100"/>
    <path id="Trazado_166" data-name="Trazado 166" d="M173.461,178.964H130.117a1.257,1.257,0,0,1,0-2.514h43.344a1.257,1.257,0,1,1,0,2.514Z" transform="translate(132.85 221.05)" fill="#ffb100"/>
    <path id="Trazado_167" data-name="Trazado 167" d="M184.212,186.029H80.152a1.207,1.207,0,0,1-1.232-1.207,1.232,1.232,0,0,1,1.232-1.232h104.06a1.232,1.232,0,0,1,1.232,1.232,1.207,1.207,0,0,1-1.232,1.207Z" transform="translate(57.234 231.861)" fill="#fff"/>
    <path id="Trazado_168" data-name="Trazado 168" d="M178.67,186.029H126.627a1.182,1.182,0,0,1-1.207-1.207,1.207,1.207,0,0,1,1.207-1.232H178.67a1.207,1.207,0,0,1,1.207,1.232,1.182,1.182,0,0,1-1.207,1.207Z" transform="translate(127.642 231.861)" fill="#ffb100"/>
    <path id="Trazado_169" data-name="Trazado 169" d="M231.653,186.029H152.407a1.182,1.182,0,0,1-1.207-1.207,1.207,1.207,0,0,1,1.207-1.232h79.246a1.232,1.232,0,0,1,1.232,1.232,1.207,1.207,0,0,1-1.232,1.207Z" transform="translate(166.676 231.861)" fill="#ffb100"/>
    <path id="Trazado_170" data-name="Trazado 170" d="M266.407,186.029H187.262a1.207,1.207,0,0,1-1.232-1.207,1.232,1.232,0,0,1,1.232-1.232h79.145a1.232,1.232,0,0,1,1.232,1.232,1.207,1.207,0,0,1-1.232,1.207Z" transform="translate(219.414 231.861)" fill="#ffb100"/>
    <path id="Trazado_171" data-name="Trazado 171" d="M152.7,193.139H90.622a1.207,1.207,0,0,1-1.232-1.207,1.232,1.232,0,0,1,1.232-1.232H152.7a1.207,1.207,0,0,1,1.207,1.232,1.182,1.182,0,0,1-1.207,1.207Z" transform="translate(73.087 242.626)" fill="#fff"/>
    <path id="Trazado_172" data-name="Trazado 172" d="M182,193.139H119.927a1.182,1.182,0,0,1-1.207-1.207,1.207,1.207,0,0,1,1.207-1.232H182a1.232,1.232,0,0,1,1.232,1.232A1.207,1.207,0,0,1,182,193.139Z" transform="translate(117.497 242.626)" fill="#ffb100"/>
    <path id="Trazado_173" data-name="Trazado 173" d="M211.546,193.139H149.472a1.207,1.207,0,0,1-1.232-1.207,1.232,1.232,0,0,1,1.232-1.232h62.074a1.207,1.207,0,0,1,1.207,1.232,1.182,1.182,0,0,1-1.207,1.207Z" transform="translate(162.194 242.626)" fill="#ffb100"/>
    <path id="Trazado_174" data-name="Trazado 174" d="M242.156,193.984h-62.1a1.257,1.257,0,1,1,0-2.514h62.1a1.257,1.257,0,0,1,0,2.514Z" transform="translate(208.466 243.792)" fill="#ffb100"/>
    <path id="Trazado_175" data-name="Trazado 175" d="M137.037,200.249H94.3a1.182,1.182,0,0,1-1.207-1.207A1.207,1.207,0,0,1,94.3,197.81h42.74a1.232,1.232,0,0,1,1.232,1.232,1.207,1.207,0,0,1-1.232,1.207Z" transform="translate(78.69 253.392)" fill="#fff"/>
    <path id="Trazado_176" data-name="Trazado 176" d="M158.072,200.249h-42.74a1.207,1.207,0,0,1-1.232-1.207,1.232,1.232,0,0,1,1.232-1.232h42.74a1.207,1.207,0,0,1,1.207,1.232,1.182,1.182,0,0,1-1.207,1.207Z" transform="translate(110.502 253.392)" fill="#ffb100"/>
    <path id="Trazado_177" data-name="Trazado 177" d="M224.824,202.06h0l-88.347-1.81a1.207,1.207,0,0,1-1.207-1.232,1.182,1.182,0,0,1,1.257-1.207l88.347,1.81a1.257,1.257,0,0,1,0,2.514Z" transform="translate(142.556 253.391)" fill="#ffb100"/>
    <path id="Trazado_178" data-name="Trazado 178" d="M219.552,122.029H161.727a1.207,1.207,0,0,1-1.207-1.232,1.182,1.182,0,0,1,1.207-1.207h57.825a1.207,1.207,0,0,1,1.232,1.207,1.232,1.232,0,0,1-1.232,1.232Z" transform="translate(180.788 134.956)" fill="#ffb100"/>
    <path id="Trazado_179" data-name="Trazado 179" d="M213.647,122.217c-11.314,0-19.711,0-20.113-.251a1.214,1.214,0,0,1,.654-2.338c2.212.277,40.377.126,65.619,0h0a1.207,1.207,0,0,1,1.232,1.207,1.232,1.232,0,0,1-1.232,1.232C246.331,122.116,227.727,122.217,213.647,122.217Z" transform="translate(229.433 134.944)" fill="#ffb100"/>
    <path id="Trazado_180" data-name="Trazado 180" d="M231.659,107.854H147.687a1.257,1.257,0,1,1,0-2.514h83.972a1.257,1.257,0,1,1,0,2.514Z" transform="translate(159.454 113.38)" fill="#ffb100"/>
    <path id="Trazado_181" data-name="Trazado 181" d="M271.428,107.854H187.757a1.257,1.257,0,1,1,0-2.514h83.57a1.257,1.257,0,1,1,0,2.514Z" transform="translate(220.125 113.38)" fill="#ffb100"/>
    <path id="Trazado_182" data-name="Trazado 182" d="M166.361,100.721H138.555a1.232,1.232,0,0,1-1.006-1.408,1.207,1.207,0,0,1,1.358-1.006c2.137.151,64.136,0,96.669,0h0a1.232,1.232,0,0,1,1.232,1.232,1.207,1.207,0,0,1-1.232,1.207C221.924,100.67,189.843,100.721,166.361,100.721Z" transform="translate(145.984 102.713)" fill="#ffb100"/>
    <path id="Trazado_183" data-name="Trazado 183" d="M186.232,100.916a1.182,1.182,0,0,1-1.056-.7,1.333,1.333,0,0,1,.654-1.684c.98-.478,20.515-.528,58.026,0a1.257,1.257,0,0,1,1.207,1.232,1.207,1.207,0,0,1-1.232,1.207h0c-21.848-.226-55.06-.427-57.121,0a.855.855,0,0,1-.478-.05Z" transform="translate(217.98 102.493)" fill="#fff"/>
    <path id="Trazado_184" data-name="Trazado 184" d="M180.151,150.514H136.857a1.257,1.257,0,1,1,0-2.514h43.293a1.257,1.257,0,0,1,0,2.514Z" transform="translate(143.056 177.973)" fill="#ffb100"/>
    <path id="Trazado_185" data-name="Trazado 185" d="M133.751,157.634H101.9a1.257,1.257,0,1,1,0-2.514h31.854a1.257,1.257,0,1,1,0,2.514Z" transform="translate(90.121 188.753)" fill="#ffb100"/>
    <path id="Trazado_186" data-name="Trazado 186" d="M195.078,157.634h-75.7a1.257,1.257,0,0,1,0-2.514h75.7a1.257,1.257,0,0,1,0,2.514Z" transform="translate(116.589 188.753)" fill="#fff"/>
    <path id="Trazado_187" data-name="Trazado 187" d="M302.167,157.634H155.517a1.257,1.257,0,0,1,0-2.514h146.65a1.257,1.257,0,0,1,0,2.514Z" transform="translate(171.31 188.753)" fill="#ffb100"/>
    <circle id="Elipse_8" data-name="Elipse 8" cx="4.274" cy="4.274" r="4.274" transform="translate(76.77 153.453)" fill="#231f20"/>
    <circle id="Elipse_9" data-name="Elipse 9" cx="4.274" cy="4.274" r="4.274" transform="translate(91.755 153.453)" fill="#fff"/>
    <circle id="Elipse_10" data-name="Elipse 10" cx="4.274" cy="4.274" r="4.274" transform="translate(106.739 153.453)" fill="#fff"/>
    <path id="Trazado_188" data-name="Trazado 188" d="M276.564,273.83H116.64l18.077-55.11H258.488Z" transform="translate(114.348 285.053)" fill="#fff"/>
    <path id="Trazado_189" data-name="Trazado 189" d="M277.332,275.844H117.408a1.232,1.232,0,0,1-1.207-1.634l18.077-55.11a1.257,1.257,0,0,1,1.207-.88H259.255a1.257,1.257,0,0,1,1.207.88l18.077,55.11a1.232,1.232,0,0,1-1.207,1.634Zm-158.19-2.514H275.6l-17.247-52.6H136.389Z" transform="translate(113.58 284.296)" fill="#231f20"/>
    <rect id="Rectángulo_19" data-name="Rectángulo 19" width="201.86" height="15.512" rx="3.09" transform="translate(210.02 558.882)" fill="#fff"/>
    <path id="Trazado_190" data-name="Trazado 190" d="M303.174,258.192H116.826a9.026,9.026,0,1,1,0-18.051H303.174a9.026,9.026,0,0,1,0,18.052ZM116.826,242.654a6.512,6.512,0,1,0,0,13.023H303.174a6.512,6.512,0,1,0,0-13.023Z" transform="translate(100.963 317.486)" fill="#231f20"/>
    <path id="Trazado_191" data-name="Trazado 191" d="M118.55,259.223c2.514-1.358,141.043-26.65,141.043-26.65l-4.551-13.853H131.272Z" transform="translate(117.24 285.053)" fill="#231f20"/>
    <path id="Trazado_192" data-name="Trazado 192" d="M119.261,261.207a1.182,1.182,0,0,1-.779-.3,1.207,1.207,0,0,1-.352-1.307l12.722-40.5a1.182,1.182,0,0,1,1.156-.855H255.779a1.182,1.182,0,0,1,1.156.83l4.551,13.828a1.257,1.257,0,0,1-.955,1.584c-37.963,6.939-137.3,25.267-140.792,26.6A1.359,1.359,0,0,1,119.261,261.207Zm13.727-40.528-11.816,37.586c16.644-3.771,113.589-21.521,137.624-25.921l-3.822-11.666Z" transform="translate(116.503 284.326)" fill="#231f20"/>
  </g>
</svg>
